<?xml version="1.0" encoding="UTF-8"?>
<svg width="317px" height="335px" viewBox="0 0 317 335" version="1.1" xmlns="http://www.w3.org/2000/svg" xmlns:xlink="http://www.w3.org/1999/xlink">
    <!-- Generator: Sketch 52.3 (67297) - http://www.bohemiancoding.com/sketch -->
    <title>Group 5</title>
    <desc>Created with Sketch.</desc>
    <g id="Page-1" stroke="none" stroke-width="1" fill="none" fill-rule="evenodd">
        <g id="Group-5" fill-rule="nonzero">
            <g id="Group-10" transform="translate(22.000000, 103.000000)" fill="#333D49" stroke="#333D49" stroke-width="3">
                <g id="Group-4" transform="translate(216.500000, 62.500000) rotate(-360.000000) translate(-216.500000, -62.500000) translate(159.000000, 0.000000)">
                    <path d="M65.9360423,98.7457103 C67.9977935,99.9021397 70.1383183,100.9906 72.3426407,102.010935 L68.7718756,103.012366 C67.4344234,103.387992 66.3337003,104.265004 65.674281,105.488301 C65.0148616,106.711598 64.8729095,108.128203 65.2728383,109.482271 C66.0789179,112.179487 69.1110321,113.882568 71.7835964,113.127824 L89.0929071,108.262376 C90.4320872,107.886768 91.5379943,107.009811 92.1974196,105.787092 C92.852225,104.563168 92.9941831,103.147141 92.5920223,101.799988 L87.3872301,84.3120911 C86.5828366,81.6108455 83.5496064,79.9112212 80.87643,80.6624907 C79.5389778,81.0381165 78.4383267,81.9220662 77.7788714,83.1418944 C77.1194881,84.3686607 76.9775,85.7817965 77.3773927,87.1323952 L79.3454108,93.7411106 C76.3982624,92.511232 73.5601754,91.1350795 70.8878853,89.6409969 C29.4167851,66.4070321 32.3655085,17.4001442 32.4029839,16.9045225 C32.5515535,14.8491805 31.475824,12.8625199 29.6626034,11.8462844 C29.0102688,11.4769754 28.3001727,11.2579466 27.5639828,11.1883736 C24.7034087,10.9196354 22.1838385,13.0420466 21.9758519,15.9205661 C21.9304086,16.4808521 18.6012326,72.2256181 65.9360423,98.7457103 Z" id="Path" transform="translate(57.363345, 62.236384) scale(-1, -1) rotate(32.000000) translate(-57.363345, -62.236384) "></path>
                </g>
                <g id="Group-4-Copy" transform="translate(57.500000, 66.500000) scale(-1, -1) rotate(-360.000000) translate(-57.500000, -66.500000) translate(0.000000, 4.000000)">
                    <path d="M65.9360423,98.7457103 C67.9977935,99.9021397 70.1383183,100.9906 72.3426407,102.010935 L68.7718756,103.012366 C67.4344234,103.387992 66.3337003,104.265004 65.674281,105.488301 C65.0148616,106.711598 64.8729095,108.128203 65.2728383,109.482271 C66.0789179,112.179487 69.1110321,113.882568 71.7835964,113.127824 L89.0929071,108.262376 C90.4320872,107.886768 91.5379943,107.009811 92.1974196,105.787092 C92.852225,104.563168 92.9941831,103.147141 92.5920223,101.799988 L87.3872301,84.3120911 C86.5828366,81.6108455 83.5496064,79.9112212 80.87643,80.6624907 C79.5389778,81.0381165 78.4383267,81.9220662 77.7788714,83.1418944 C77.1194881,84.3686607 76.9775,85.7817965 77.3773927,87.1323952 L79.3454108,93.7411106 C76.3982624,92.511232 73.5601754,91.1350795 70.8878853,89.6409969 C29.4167851,66.4070321 32.3655085,17.4001442 32.4029839,16.9045225 C32.5515535,14.8491805 31.475824,12.8625199 29.6626034,11.8462844 C29.0102688,11.4769754 28.3001727,11.2579466 27.5639828,11.1883736 C24.7034087,10.9196354 22.1838385,13.0420466 21.9758519,15.9205661 C21.9304086,16.4808521 18.6012326,72.2256181 65.9360423,98.7457103 Z" id="Path" transform="translate(57.363345, 62.236384) scale(-1, -1) rotate(32.000000) translate(-57.363345, -62.236384) "></path>
                </g>
            </g>
            <g id="Group-9" transform="translate(0.000000, 250.000000)">
                <rect id="Rectangle-Copy" stroke="#333D49" stroke-width="13" fill="#74E1FF" x="6.5" y="6.5" width="304" height="72" rx="36"></rect>
                <g id="Group-7" transform="translate(39.000000, 30.000000)">
                    <path d="M114.567669,0.433333333 L114.567669,25.5666667" id="Line" stroke="#333D49" stroke-width="9" stroke-linecap="round" stroke-linejoin="round"></path>
                    <ellipse id="Oval" fill="#333D49" cx="10.3759398" cy="13" rx="10.3759398" ry="10.4"></ellipse>
                    <ellipse id="Oval" fill="#333D49" cx="46.6917293" cy="13" rx="10.3759398" ry="10.4"></ellipse>
                    <ellipse id="Oval-Copy" fill="#333D49" cx="83.8721805" cy="13" rx="10.3759398" ry="10.4"></ellipse>
                </g>
            </g>
            <g id="Group-8" stroke="#333D49">
                <rect id="Rectangle-Copy-2" stroke-width="13" fill="#FF6868" x="6.5" y="6.5" width="304" height="72" rx="36"></rect>
                <g id="Group-6" transform="translate(39.000000, 29.000000)" stroke-linecap="round" stroke-linejoin="round">
                    <path d="M114.567669,0.433333333 L114.567669,25.5666667" id="Line" stroke-width="9"></path>
                    <path d="M10.3759398,0.919837246 L21.96415,24.15 L-1.21227032,24.15 L10.3759398,0.919837246 Z" id="Triangle" stroke-width="1.5" fill="#333D49"></path>
                    <path d="M46.6917293,0.919837246 L58.2799395,24.15 L35.1035192,24.15 L46.6917293,0.919837246 Z" id="Triangle-Copy" stroke-width="1.5" fill="#333D49"></path>
                    <path d="M83.0075188,0.919837246 L94.595729,24.15 L71.4193086,24.15 L83.0075188,0.919837246 Z" id="Triangle-Copy-2" stroke-width="1.5" fill="#333D49"></path>
                </g>
            </g>
        </g>
    </g>
</svg>